<svg xmlns="http://www.w3.org/2000/svg"  viewBox="0 0 50 50" width="110px" height="110px"><g id="_x33_2"><path fill="#f3f1fc" d="M48.7855835,37.1024628l0.0100098,2.1400146l-13.8099976,8.0299683l-1.2900391-0.6699829 l-2.0299683,1.1799927c-0.5200195,0.3500366-1.25,0.3300171-2.0700073-0.1399536 c-1.4799805-0.8500366-2.6900024-2.8900146-2.789978-4.6200562l-3.9500122-2.0499878l-0.0300293-0.0100098v-0.0199585 l-2.75-1.5800171l-0.2199707-0.1300049l-5.3500357-3.0800171l-0.2199707-0.1300049l-2.3500366-1.3599854v0.0100098 c-0.0299683-0.0200195-0.0699463-0.0299683-0.0999756-0.0499878l-1.7299805,1.0100098 c0.039978-0.0200195,0.0700073-0.0400391,0.0999756-0.0700073c-0.5100098,0.3599854-1.25,0.3499756-2.0800171-0.1199951 c-1.4799809-0.8599854-2.6900029-2.8699951-2.7999883-4.6000347l-0.5100098-0.289978l-0.0099487-0.0100098L4.285584,30.2424793 l-0.1699829-0.0999756L1.2055669,28.46245l0.0100098-5.25l0.0100098-0.9199829l0.0299683-12.2700205l13.8500366-8.0499878 L36.765564,14.4824686v0.0100098l-0.0100098,5.0299692l4.9500122,2.8600464l3.5100098,7.4199829l3.5800171,3.419981 L48.7855835,37.1024628z"/><path fill="#1d2943" d="M14.2374973,31.9077702c0,0.8801899-0.3168917,1.5021534-0.8215256,1.7955532l-3.3095274,1.9247017 c0.5046349-0.2933998,0.1491957-0.8060112,0.1491957-1.6979485c0.0117474-1.7720604-0.5716696-4.0526638-2.1208143-4.9446011 c-0.7745371-0.4459686-1.4904799-0.4928875-1.9951143-0.1994896l3.3095264-1.9129543 c0.5046349-0.3051453,1.2088299-0.2581558,1.9951143,0.1878128 C12.9934969,27.9527111,14.2374973,30.1238937,14.2374973,31.9077702z"/><path fill="#1d2943" d="M35.7192955,44.1170235c0,0.8801918-0.3168907,1.5021553-0.8215256,1.7955513l-3.3095264,1.9247017 c0.5046329-0.293396-1.3526402-0.8752403-1.3526402-1.7671776c0.0117474-1.7720566,0.9301662-3.9834328-0.6189785-4.87537 c-0.774538-0.4459686-1.4904804-0.4928894-1.9951153-0.1994896l3.3095264-1.9129562 c0.5046349-0.3051414,1.2088299-0.258152,1.9951153,0.1878166C34.475296,40.1619644,35.7192955,42.3331451,35.7192955,44.1170235 z"/><polygon fill="#c3a12e" points="22.8980217,27.5770454 36.7553711,19.5240326 36.717411,32.9148636 22.8600597,40.9678764"/><polygon fill="#4c5c75" points="34.9329834,45.1558342 48.7903366,37.1028214 48.7942963,39.24226 34.9828262,47.2686119"/><polygon fill="#f3f1fc" points="22.9113636,22.5366516 22.9008045,27.5791359 22.8902454,31.471796 22.8902454,31.724966 22.8797493,34.2673607 22.8797493,34.7948189 22.8691902,35.9657669 22.8586311,40.9660797 9.956975,33.5183449 4.1126747,30.1425858 1.2009128,28.4652977 1.2537104,10.0252457"/><polygon fill="#e9e7fc" points="22.9123116,22.5364418 36.7696609,14.4834309 36.7553711,19.5240326 22.8980217,27.5770454"/><polygon fill="#f8f9fe" points="36.7745247,14.4813871 22.9131565,22.5316772 1.2574075,10.0255251 15.1078415,1.975234"/><path fill="#f3f1fc" d="M27.8495712,30.4358234l13.8573532-8.053009l3.5065689,7.4265175l-13.8573532,8.0530186 C30.6112595,36.8625946,29.1667175,33.4275055,27.8495712,30.4358234z"/><polygon fill="#e9e7fc" points="44.5054893,29.5888557 41.4664116,23.1539307 41.1276054,23.3508282 44.0335312,29.5039291 44.5054893,29.5888557"/><polygon fill="#f8f9fe" points="44.0335312,29.5039291 44.0335312,29.5039291 31.4631481,36.8091125 31.5962353,37.0909996 44.5054893,29.5888557"/><polygon fill="#497bfe" points="44.0308914,29.4990997 31.466753,36.8096886 28.5552273,30.6594868 41.1298599,23.348896"/><path fill="#f8f9fe" d="M22.8980255,27.5770435l13.8573456-8.0530109l4.9515533,2.8587818l-13.8573532,8.053009 C26.4428024,29.8160267,24.710022,28.7506733,22.8980255,27.5770435z"/><path fill="#f8f9fe" d="M48.7990875,33.2229996L34.9374847,41.282547c-1.5020294-1.1748047-2.942276-2.3425446-3.5762024-3.4179382 l13.8511124-8.0596046L48.7990875,33.2229996z"/><polygon fill="#e93565" points="23.4072094,31.7672043 23.4072094,32.0203743 20.0947437,30.1109715 19.873188,29.9843864 19.873188,29.7312164 20.0947437,29.8578014"/><path fill="#e9e7fc" d="M34.9300919,45.1482735l0.0527344,2.1203384l-12.1531544-6.3025322l0.0105591-5.0003128l0.010561-1.170948 l0.0321274-0.533329l0.0210552-6.6882248l4.9475784,2.8588562l3.5129032,7.4266167l3.4496117,3.2807884l0.1265831,0.1265869 c0.7750549,1.3398895,1.8773956,2.6990356-0.0105591,3.8821564V45.1482735z"/><path fill="#cacce8" d="M33.4711266,46.0402451c0,0.1582642-0.0098495,0.2967453-0.0204086,0.4338264l-5.602335-2.9023056 l-0.3375816-0.1793823l-0.5590744-0.2953453l-1.1920643-0.6224289c0.1160259-1.6139984,1.1603851-2.7216492,2.5951271-2.7216492 c0.5801926,0,1.1815052,0.1793175,1.7933121,0.5274582C32.0153313,41.3563957,33.4711266,43.8882294,33.4711266,46.0402451z"/><path fill="#4c5c75" d="M29.6178341,41.1963844c1.5435467,0.8911667,2.7982616,3.0644188,2.7932339,4.8380928 c-0.0050507,1.7822418-1.267971,2.5019646-2.8115177,1.6107979c-1.5510464-0.8955002-2.8057575-3.0687752-2.800705-4.851017 C26.8038731,41.0205841,28.0667858,40.3008881,29.6178341,41.1963844z"/><path fill="#fff" d="M29.6054668,42.0052795c1.2005558,0.6931419,2.1663971,2.3608475,2.1625137,3.7305679 c-0.0006695,1.3889503-0.9695091,1.9410629-2.1766071,1.2403908c-1.1940765-0.6893997-2.1533394-2.3622131-2.1494389-3.7380371 C27.4458027,41.8736267,28.4146423,41.3215141,29.6054668,42.0052795z M29.2028751,42.2309532 c-0.5485744-0.147747-0.9378071-0.0195045-1.2134933,0.3996048c0.3227406,0.2727013,0.6259079,0.5340958,0.9356403,0.784256 c0.0152969,0.0122719,0.0299911,0.0224037,0.0440578,0.0305252c0.1088562,0.062851,0.1795559,0.0037117,0.1915436-0.1423302 c0.006918-0.1349411,0.0073204-0.2773972,0.0109768-0.4142075 C29.1820049,42.6770096,29.1924191,42.4614792,29.2028751,42.2309532 M30.0513954,43.7759933 c0.0100002,0.2031479,0.0757465,0.3377991,0.2127609,0.4169044c0.0324249,0.0187187,0.0688362,0.0343285,0.1094379,0.0469856 c0.0848789,0.0302391,0.1697674,0.0567093,0.2513924,0.0813141c0.1958981,0.060524,0.3918056,0.1173058,0.6007748,0.1778831 c-0.2691593-0.7299194-0.659647-1.312088-1.1975002-1.7840805l-0.0163994,0.0243263 C30.0272102,43.0861435,30.0393028,43.4310722,30.0513954,43.7759933 M30.9123917,46.6837807 c0.3175869-0.2146568,0.4787235-0.5722313,0.4998608-1.1120071c-0.2776508-0.0401459-0.5389252-0.0933609-0.7904854-0.1146889 c-0.107811-0.0096741-0.1505642,0.085804-0.0856972,0.2584343 C30.6560802,46.0326347,30.7826271,46.3497696,30.9123917,46.6837807 M28.6111984,44.6079483 c0.0623894-0.1066704,0.0203495-0.2623634-0.1132202-0.4070702c-0.2215309-0.240551-0.4463425-0.4754868-0.6939526-0.7385902 c0.0082893,0.5342255,0.1440601,1.0556984,0.4430923,1.6226273c0.0787029-0.0972595,0.1475754-0.1851654,0.2164497-0.2730713 C28.5127811,44.74263,28.5684986,44.6846771,28.6111984,44.6079483 M29.6066799,46.5755959 c0.2090778,0.1207123,0.4167137,0.1972618,0.6289234,0.2318726c-0.1690006-0.3266144-0.3216991-0.6400833-0.4973106-0.9404869 c-0.0323277-0.0560074-0.1091461-0.1244812-0.1696472-0.1594009c-0.0307751-0.0177689-0.0573196-0.0268669-0.0716591-0.0212212 c-0.2028465,0.0856628-0.3861961,0.2126045-0.5891476,0.3320045 C29.1478043,46.2588768,29.3781071,46.4436302,29.6066799,46.5755959 M29.6031933,43.9565544 c-0.2512112-0.1450348-0.463974-0.0200348-0.4647923,0.2686119c-0.0008278,0.2924118,0.2072792,0.6566353,0.4617519,0.8035545 c0.0020123,0.001194,0.0039787,0.0023499,0.0059814,0.0035057c0.251791,0.1453705,0.4612465,0.031147,0.4653034-0.2570953 c0.0073128-0.2902718-0.2105541-0.6698303-0.462698-0.8154068 C29.6068916,43.9586563,29.6050415,43.957592,29.6031933,43.9565544"/><polygon fill="#f8f9fe" points="30.8443851,37.9384613 23.6919956,33.3811989 23.6076469,28.623497 23.3439178,28.4652977 23.4282646,33.4656105 31.0237045,38.3076591"/><polygon fill="#497bfe" points="30.8443851,37.9384613 26.1394176,34.9424591 25.7702217,34.7104073 25.2743759,34.3939476 23.9768448,33.5605164 23.6919956,33.3811989 23.6076469,28.623497 26.0128326,30.0054417 27.3420429,30.7755756 27.4264545,30.8177509 27.6901836,31.3557701 27.9116764,31.8304977"/><polygon fill="#f3f1fc" points="34.9369431,41.2782402 48.7942963,33.2252274 48.7832985,37.1038284 34.9259491,45.1568413"/><polygon fill="#3f424f" points="33.7372551,23.0273876 33.7393799,23.7763081 35.4585533,24.775383 35.4564285,24.0264626"/><path fill="#cc104a" d="M35.4564285,24.0264606l0.0021248,0.7489223l3.4608383-1.9981174l-0.0021248-0.7489128 C37.0586166,22.3924732,35.6733322,22.9593067,35.4564285,24.0264606z"/><polygon fill="#e93565" points="33.7372551,23.0273876 35.4564285,24.0264626 38.9172668,22.0283451 37.1980934,21.0292721"/><path fill="#f3f1fc" d="M30.2764168,25.0255032l1.7191734,0.9990807c1.2918777-0.6528625,2.4908676-1.3145752,3.4608383-1.9981232 l-1.7191734-0.999073L30.2764168,25.0255032z"/><polygon fill="#3f424f" points="30.2764168,25.0255032 30.2785397,25.7744255 31.9977131,26.7734985 31.9955902,26.0245781"/><polygon fill="#e9e7fc" points="31.9955902,26.0245781 31.9977131,26.7734985 35.4585533,24.775383 35.4564285,24.0264626"/><path fill="#5094ff" d="M26.8155746,27.0236225l0.0021267,0.7489185l1.7191734,0.9990749l-0.0021229-0.7489243 C28.4043274,27.3432026,27.7251968,27.0932026,26.8155746,27.0236225z"/><path fill="#5094ff" d="M28.5347519,28.0226917l0.0021229,0.7489243l3.4608383-1.9981174l-0.0021229-0.7489147 C30.6721115,26.3104115,29.5727463,27.097887,28.5347519,28.0226917z"/><polygon fill="#57b3fe" points="26.8155785,27.0236206 28.5347519,28.0226936 31.9955902,26.0245781 30.2764168,25.0255032"/><path fill="#f8f9fe" d="M47.670948,38.3042641c0.1743088-0.1006393,0.3199387-0.0621071,0.3203812,0.0937004L47.993,38.9877625 c0.0004425,0.1558075-0.1444626,0.37323-0.3187714,0.4738693l-1.5749092,0.9092712 c-0.1743774,0.1006775-0.3103142,0.0453987-0.3107567-0.1104088l-0.0016708-0.5897942 c-0.0004425-0.1558075,0.1347694-0.3564873,0.3091469-0.4571648L47.670948,38.3042641z"/><path fill="#f8f9fe" d="M37.5363731,44.1259575c0.1743126-0.1006393,0.3199387-0.0621033,0.3203812,0.0937042l0.0016747,0.589798 c0.0004387,0.1558075-0.1444626,0.3732262-0.3187752,0.4738655l-1.5749054,0.9092751 c-0.1743774,0.1006737-0.310318,0.0453987-0.3107567-0.1104088l-0.0016747-0.589798 c-0.0004425-0.1558075,0.1347733-0.3564873,0.3091507-0.4571609L37.5363731,44.1259575z"/><polygon fill="#e93565" points="14.2926826,29.8472424 14.5141745,29.9738274 14.5141745,31.0603619 14.2926826,30.9232159 1.2114724,23.21175 1.2220318,22.2939758"/><polygon fill="#57b3fe" points="37.9228592,25.2161255 36.4354515,33.91922 32.1630363,36.3982544 33.6610069,27.6951618"/><polygon fill="#57b3fe" points="40.7605972,23.5598927 39.2731895,32.2735443 38.0600052,32.9697647 39.5474777,24.2666721"/><polygon fill="#57b3fe" points="27.3420429,30.7755756 25.2743759,34.3939476 23.9768448,33.5605164 26.0128326,30.0054417"/><polygon fill="#57b3fe" points="27.9116764,31.8304977 26.1394176,34.9424591 25.7702217,34.7104073 27.6901836,31.3557701"/><path fill="#cacce8" d="M4.808938,30.5434895l0.6645994,0.3481236l0.5591078,0.2953777l0.337575,0.1793365 c0.3164759,0.2215328,0.6435013,0.4325161,0.9599771,0.6329517c1.5190859,1.0021744,3.0487204,1.8988571,4.6100025,2.6689491 c0.0105486-0.1371384,0.0527458-0.675148,0.0527458-0.8333893c0-2.1520367-1.4557905-4.6838455-3.322999-5.7598629 c-0.6118536-0.3481255-1.2131586-0.5274601-1.793365-0.5274601c-1.4241424,0-2.4685135,1.0971165-2.5951042,2.6900463 L4.808938,30.5434895z"/><path fill="#4c5c75" d="M10.9274836,33.8242493c0,1.7828178-1.2659168,2.5002174-2.8061237,1.6140556 c-1.5507026-0.896656-2.8060603-3.0697899-2.8060603-4.8526058c0.0105596-1.7723236,1.2659173-2.4896622,2.8166194-1.6035004 C9.6826859,29.8788548,10.9380436,32.0519905,10.9274836,33.8242493z"/><path fill="#fff" d="M8.1236677,29.7960281c1.2005558,0.69314,2.1663971,2.3608437,2.1625137,3.7305641 c-0.0006695,1.3889542-0.9695091,1.9410667-2.1766062,1.2403946c-1.1940765-0.6893997-2.1533403-2.3622131-2.1494398-3.7380371 C5.964004,29.6643715,6.9328432,29.1122608,8.1236677,29.7960281z M7.721077,30.021698 c-0.5485744-0.1477451-0.9378085-0.0195026-1.2134933,0.3996067c0.322741,0.2726994,0.6259069,0.5340977,0.9356403,0.784256 c0.0152969,0.0122738,0.0299916,0.0224056,0.0440564,0.0305252c0.1088581,0.062849,0.1795559,0.0037117,0.1915436-0.1423302 c0.0069184-0.1349392,0.0073223-0.2773952,0.0109777-0.4142075C7.7002058,30.4677544,7.7106199,30.252224,7.721077,30.021698 M8.5695972,31.56674c0.0099993,0.2031479,0.0757456,0.3377972,0.2127609,0.4169025 c0.0324249,0.0187225,0.0688353,0.0343285,0.1094379,0.0469856c0.084878,0.0302391,0.1697664,0.0567093,0.2513914,0.0813179 c0.1958981,0.0605202,0.3918056,0.1173058,0.6007748,0.1778831c-0.2691593-0.7299213-0.6596479-1.3120918-1.1974993-1.7840843 l-0.0163994,0.0243263C8.5454111,30.8768902,8.5575037,31.2218208,8.5695972,31.56674 M9.4305935,34.4745293 c0.3175869-0.2146568,0.4787235-0.5722313,0.4998608-1.112011c-0.2776508-0.0401421-0.5389252-0.0933609-0.7904863-0.1146851 c-0.107811-0.0096741-0.1505632,0.0858002-0.0856962,0.2584305C9.1742821,33.8233795,9.300828,34.1405144,9.4305935,34.4745293 M7.1293988,32.3986931c0.0623908-0.1066666,0.0203509-0.2623634-0.1132197-0.4070702 c-0.2215295-0.2405491-0.4463429-0.4754848-0.6939511-0.7385902c0.0082889,0.5342274,0.1440587,1.0557022,0.4430909,1.6226311 c0.0787034-0.0972595,0.1475768-0.1851654,0.2164502-0.2730713C7.0309825,32.5333748,7.0866995,32.4754257,7.1293988,32.3986931 M8.1248808,34.3663445c0.2090788,0.1207085,0.4167137,0.197258,0.6289234,0.2318726 c-0.1690006-0.3266182-0.3216991-0.6400871-0.4973097-0.9404869c-0.0323286-0.0560074-0.1091461-0.124485-0.1696472-0.1594048 c-0.030776-0.0177689-0.0573196-0.0268669-0.0716591-0.0212212c-0.2028475,0.0856667-0.3861961,0.2126083-0.5891485,0.3320084 C7.6660051,34.0496254,7.8963075,34.234375,8.1248808,34.3663445 M8.1213942,31.7473011 c-0.2512107-0.1450367-0.463973-0.0200367-0.4647913,0.2686138c-0.0008292,0.292408,0.2072787,0.6566353,0.4617519,0.8035545 c0.0020123,0.001194,0.0039787,0.0023499,0.0059814,0.0035057c0.251791,0.1453705,0.4612455,0.0311432,0.4653034-0.2570953 c0.0073128-0.2902718-0.2105551-0.6698322-0.4626989-0.8154068C8.1250925,31.7494049,8.1232433,31.7483368,8.1213942,31.7473011"/><path fill="#dedffb" d="M20.1101341,26.4503651l-0.0316143,12.9126759l-0.2215557-0.1265869l0.0316143-12.9126759 c0-0.3586998-0.25317-0.8017483-0.5696335-0.9810677l-4.2091227-2.4263039 c-0.3164635-0.1793823-0.5591383-0.0422382-0.5696335,0.3270226l-0.0316792,12.905962l-0.2215557-0.1265831l0.0316782-12.916523 c0-0.5063419,0.3587008-0.7067795,0.7911901-0.4536076l4.2091227,2.4263039 C19.7514973,25.3321514,20.1101341,25.9440231,20.1101341,26.4503651z"/><path fill="#497bfe" d="M19.4956055,26.6024952l-0.0100098,3.1799927v0.039978 c-0.0200195,0.1300049-0.1300049,0.1900024-0.2600098,0.1099854l-4.0700064-2.3499756 c-0.1400146-0.0900269-0.2700195-0.2700195-0.2700195-0.4500122l0.0200195-3.1900024 c0-0.1199951,0.0599976-0.1900024,0.1400146-0.1900024c0.039978,0,0.0799561,0.0100098,0.1199951,0.0400391l4.0800161,2.3499756 C19.3855591,26.2325001,19.4956055,26.4225025,19.4956055,26.6024952z"/><polygon fill="#1d2943" points="25.0229607,35.0427132 25.0218849,35.7365952 23.4727592,34.8422089 23.4738331,34.1483269"/><polygon fill="#4c5c75" points="15.9504194,30.1476955 15.9493446,30.5269203 14.9859991,29.9707317 14.9870749,29.591507"/><path fill="#e93565" d="M28.0401402,14.6801567v2.105751c0,0.2177601-0.1422157,0.4355183-0.4266491,0.5999508 c-0.5732861,0.3333111-1.5109959,0.3333111-2.0887566,0c-0.2888546-0.1688805-0.4310703-0.3866386-0.4310703-0.6088467 v-2.0968552c0-0.8132877,0.6577263-1.471014,1.471014-1.471014c0.4088535,0,0.7732792,0.1644316,1.0443649,0.431097 C27.8757095,13.9068775,28.0401402,14.2713022,28.0401402,14.6801567z"/><g><path fill="#df3260" d="M5.9548235,19.7880707c-0.0074887,1.5262451,1.0698571,3.3891449,2.3978281,4.156023 c1.3317165,0.7705994,2.4128065,0.1533604,2.4165516-1.3766041c0.0037441-1.5299892-1.0698576-3.3891678-2.4015732-4.1560211 C7.0396352,17.6408691,5.9585676,18.2581062,5.9548235,19.7880707z"/><polygon fill="#fff" points="7.2864933,21.6681252 8.128664,21.5077114 8.0593939,22.6196861 8.6536551,22.962389 8.5916834,21.7592697 9.4265556,22.8931198 9.7291613,22.4811459 8.824996,21.4384403 9.7291613,21.456686 9.4338551,20.6874123 8.6026096,20.8441792 8.6609545,19.7358742 8.0703192,19.3931713 8.1213655,20.5634689 7.2937918,19.4660912 6.9984632,19.8780632 7.8989792,20.9061718 6.9948363,20.902523"/></g><g><path fill="#ffd06c" d="M39.6130676,39.867981v1.691761c0,0.1916618-0.1333733,0.4250374-0.2917175,0.5166969l-2.0834808,1.2000885 c-0.1666374,0.1000023-0.3000107,0.0250282-0.3083534-0.166687v-1.691761c0-0.1917152,0.1333733-0.4250374,0.3000603-0.5250435 l2.0834808-1.2000847C39.4796944,39.6012878,39.6130676,39.6762657,39.6130676,39.867981z"/><path fill="#f45170" d="M36.5878487,41.618084l0.0083427,1.691761c0,0.1917152-0.1333733,0.4166985-0.3000107,0.5167503 l-0.2166901,0.1166382c-0.1583481,0.1000023-0.3000603,0.0250244-0.3000603-0.1666412l-0.0082893-1.6918106 c0-0.1916618,0.1416626-0.4250374,0.3083496-0.5250397l0.2083473-0.1250305 C36.4544754,41.3430519,36.5878487,41.4264221,36.5878487,41.618084z"/><path fill="#ffd06c" d="M47.0939941,35.5670319l0.0083427,1.6918144c0,0.1916618-0.1333199,0.4166946-0.3000107,0.5166969 l-2.0834808,1.2000885c-0.166687,0.1000023-0.3000069,0.0166321-0.3000069-0.1666908l-0.0083427-1.6918106 c0-0.1916618,0.1333199-0.4333267,0.3000069-0.5250397l2.0834808-1.2000885 C46.9606743,35.2919998,47.0939941,35.37537,47.0939941,35.5670319z"/><path fill="#f45170" d="M48.2524223,34.9003296v1.691761c0,0.1917152-0.1250305,0.4166946-0.2916679,0.5166969 l-0.2166901,0.1166878c-0.166687,0.1000023-0.3000069,0.0250282-0.3000069-0.166687l-0.0083427-1.691761 c0-0.1916656,0.1416626-0.4250374,0.3000069-0.5250397l0.2166901-0.1166878 C48.1191025,34.6252975,48.2524223,34.7086639,48.2524223,34.9003296z"/></g></g></svg>