<svg xmlns="http://www.w3.org/2000/svg"  viewBox="0 0 256 256" width="64px" height="64px"><path fill="#FC5D3D" d="M208,86.395v51.21H48v-51.21c0-44.18,35.82-80,80-80C172.279,6.395,208,42.304,208,86.395z"/><rect width="160" height="7" x="48" y="130.605" fill="#B25035"/><path fill="#7D7B79" d="M224,142.605v38c0,2.76-2.24,5-5,5h-19v-6c0-5.52-4.48-10-10-10h-44.32L128,149.895l-17.18,19.71H66 c-5.52,0-10,4.48-10,10v6H37c-2.76,0-5-2.24-5-5v-38c0-2.76,2.24-5,5-5h182C221.76,137.605,224,139.845,224,142.605z"/><path fill="#4C4944" d="M207,179.605v6h-7v-6c0-5.52-4.48-10-10-10h-44.32L128,149.895l-17.18,19.71H66c-5.52,0-10,4.48-10,10v6h-7 v-6c0-9.39,7.61-17,17-17h41.64l16.57-19.01c1.97-2.27,5.48-2.29,7.49-0.06l17.1,19.07H190C199.39,162.605,207,170.215,207,179.605 z"/><path fill="#F0C020" d="M200,179.605v60c0,5.52-4.48,10-10,10H66c-5.52,0-10-4.48-10-10v-60c0-5.52,4.48-10,10-10h44.82 l17.18-19.71l17.68,19.71H190C195.52,169.605,200,174.085,200,179.605z"/><path fill="#FFF" d="M128,89.605L128,89.605c-3.935,0-7.27-2.893-7.827-6.788l-4.598-32.187 c-0.68-4.763,3.015-9.024,7.827-9.024h9.196c4.811,0,8.507,4.261,7.827,9.024l-4.598,32.187 C135.27,86.712,131.935,89.605,128,89.605z"/><circle cx="128" cy="105.605" r="8" fill="#FFF"/><path fill="#FFCBC3" d="M198,125.104c-1.381,0-2.5-1.119-2.5-2.5v-2.18c0-1.381,1.119-2.5,2.5-2.5s2.5,1.119,2.5,2.5v2.18 C200.5,123.985,199.381,125.104,198,125.104z M198,112.924c-1.381,0-2.5-1.119-2.5-2.5V86.397c0-37.22-30.28-67.5-67.5-67.5 c-1.381,0-2.5-1.119-2.5-2.5s1.119-2.5,2.5-2.5c39.977,0,72.5,32.523,72.5,72.5v24.027C200.5,111.805,199.381,112.924,198,112.924 z"/><path fill="#F8E5B0" d="M190,242.105H80c-1.381,0-2.5-1.119-2.5-2.5s1.119-2.5,2.5-2.5h107.5v-57.5c0-1.381,1.119-2.5,2.5-2.5 s2.5,1.119,2.5,2.5v60C192.5,240.986,191.381,242.105,190,242.105z M70,242.105h-4c-1.381,0-2.5-1.119-2.5-2.5s1.119-2.5,2.5-2.5 h4c1.381,0,2.5,1.119,2.5,2.5S71.381,242.105,70,242.105z"/><path d="M100,227.105h-8c-3.033,0-5.5-2.467-5.5-5.5c0-1.381-1.119-2.5-2.5-2.5s-2.5,1.119-2.5,2.5c0,5.79,4.71,10.5,10.5,10.5h8 c5.79,0,10.5-4.71,10.5-10.5c0-33.177,0-9.634,0-24c0-5.79-4.71-10.5-10.5-10.5h-8c-5.79,0-10.5,4.71-10.5,10.5v8 c0,5.79,4.71,10.5,10.5,10.5h8c2.018,0,3.898-0.582,5.5-1.573v7.073C105.5,224.638,103.033,227.105,100,227.105z M100,211.105h-8 c-3.033,0-5.5-2.467-5.5-5.5v-8c0-3.033,2.467-5.5,5.5-5.5h8c3.033,0,5.5,2.467,5.5,5.5v8 C105.5,208.638,103.033,211.105,100,211.105z"/><path d="M124,227.105c-1.381,0-2.5,1.119-2.5,2.5s1.119,2.5,2.5,2.5h16c1.381,0,2.5-1.119,2.5-2.5s-1.119-2.5-2.5-2.5h-5.5v-37.5 c0-2.222-2.697-3.34-4.268-1.768l-8,8c-0.977,0.976-0.977,2.559,0,3.535c0.976,0.977,2.56,0.977,3.535,0l3.732-3.732v31.464H124z"/><path d="M156,227.105c-1.381,0-2.5,1.119-2.5,2.5s1.119,2.5,2.5,2.5h16c1.381,0,2.5-1.119,2.5-2.5s-1.119-2.5-2.5-2.5h-5.5v-37.5 c0-2.222-2.696-3.34-4.268-1.768l-8,8c-0.977,0.976-0.977,2.559,0,3.535c0.976,0.977,2.56,0.977,3.535,0l3.732-3.732v31.464H156z"/><path d="M225.77,59.375l16-16c0.97-0.98,0.97-2.56,0-3.54c-0.967-0.967-2.562-0.98-3.54,0l-16,16c-0.964,0.963-0.983,2.557,0,3.54 C223.262,60.385,224.831,60.313,225.77,59.375z"/><path d="M224,76.105h24c1.38,0,2.5-1.12,2.5-2.5s-1.12-2.5-2.5-2.5h-24c-1.38,0-2.5,1.12-2.5,2.5S222.62,76.105,224,76.105z"/><path d="M238.23,107.375c0.973,0.973,2.563,0.976,3.54,0c0.97-0.98,0.97-2.56,0-3.54l-16-16c-0.95-0.94-2.59-0.94-3.54,0 c-0.929,0.928-1.018,2.501,0,3.54L238.23,107.375z"/><path d="M33.77,87.835c-0.95-0.94-2.59-0.94-3.54,0l-16,16c-0.97,0.98-0.97,2.56,0,3.54c0.993,0.972,2.543,0.976,3.54,0l16-16 C34.74,90.395,34.74,88.815,33.77,87.835z"/><path d="M8,76.105h24c1.38,0,2.5-1.12,2.5-2.5s-1.12-2.5-2.5-2.5H8c-1.38,0-2.5,1.12-2.5,2.5S6.62,76.105,8,76.105z"/><path d="M30.23,59.375c0.973,0.973,2.563,0.976,3.54,0c0.97-0.98,0.97-2.56,0-3.54l-16-16c-1.039-1.018-2.612-0.929-3.54,0 c-0.964,0.963-0.983,2.557,0,3.54L30.23,59.375z"/><path d="M29.5,142.605v38c0,4.13,3.37,7.5,7.5,7.5h16.5v16.93c0,1.37,1.12,2.5,2.5,2.5c1.38,0,2.5-1.13,2.5-2.5v-25.43 c0.01-4.13,3.37-7.49,7.5-7.5h44.82c0.72,0,1.41-0.31,1.88-0.86l15.33-17.58l15.79,17.61c0.47,0.53,1.15,0.83,1.86,0.83H190 c4.13,0.01,7.49,3.37,7.5,7.5v60c-0.01,4.13-3.37,7.49-7.5,7.5H66c-4.13-0.01-7.49-3.37-7.5-7.5v-14.57c0-1.38-1.12-2.5-2.5-2.5 c-1.38,0-2.5,1.12-2.5,2.5v14.57c0,6.89,5.61,12.5,12.5,12.5h124c6.89,0,12.5-5.61,12.5-12.5v-51.5H219c4.13,0,7.5-3.37,7.5-7.5 v-38c0-4.13-3.37-7.5-7.5-7.5h-8.5v-48.71c0-4.35-0.34-8.72-1.02-12.97c-0.21-1.36-1.49-2.3-2.86-2.08 c-1.354,0.206-2.297,1.498-2.07,2.86c0.63,4,0.95,8.1,0.95,12.19v48.71H93.29c-1.38,0-2.5,1.12-2.5,2.5s1.12,2.5,2.5,2.5H219 c1.38,0,2.5,1.12,2.5,2.5v38c0,1.38-1.12,2.5-2.5,2.5h-16.5v-3.5c0-6.89-5.61-12.5-12.5-12.5h-43.2l-16.94-18.88 c-0.966-1.09-2.727-1.134-3.74,0.03l-16.44,18.85H66c-6.89,0-12.5,5.61-12.5,12.5v3.5H37c-1.38,0-2.5-1.12-2.5-2.5v-38 c0-1.38,1.12-2.5,2.5-2.5h36.29c1.38,0,2.5-1.12,2.5-2.5s-1.12-2.5-2.5-2.5H50.5v-48.71c0-42.833,34.664-77.5,77.5-77.5 c30.94,0,58.87,18.35,71.16,46.76c0.53,1.23,2.05,1.84,3.29,1.3c1.283-0.568,1.849-2.032,1.3-3.29 C191.022,24.256,161.844,3.895,128,3.895c-45.563,0-82.5,36.913-82.5,82.5v48.71H37C32.87,135.105,29.5,138.475,29.5,142.605z"/><circle cx="83.29" cy="137.605" r="2.5"/><path d="M56,217.525c1.38,0,2.5-1.12,2.5-2.49c0-1.38-1.12-2.5-2.5-2.5c-1.38,0-2.5,1.12-2.5,2.5 C53.5,216.405,54.62,217.525,56,217.525z"/><path d="M132.6,39.105h-9.2c-6.237,0.011-11.207,5.512-10.3,11.88l4.6,32.18c0.716,5.07,5.072,8.94,10.3,8.94 c5.231,0,9.584-3.873,10.3-8.94l4.6-32.18C143.787,44.509,138.745,39.115,132.6,39.105z M137.95,50.285l-4.6,32.18 c-0.38,2.64-2.67,4.64-5.35,4.64c-2.68,0-4.97-2-5.35-4.64l-4.6-32.19c-0.481-3.245,2.077-6.17,5.35-6.17h9.2 C135.87,44.105,138.433,47.026,137.95,50.285z"/><path d="M128,95.105c-5.79,0-10.5,4.71-10.5,10.5s4.71,10.5,10.5,10.5s10.5-4.71,10.5-10.5S133.79,95.105,128,95.105z M128,111.105 c-3.03-0.01-5.5-2.47-5.5-5.5c0-3.03,2.47-5.49,5.5-5.5c3.03,0.01,5.5,2.47,5.5,5.5C133.5,108.635,131.03,111.095,128,111.105z"/><path d="M202.44,64.755c0,0.01,0,0.01,0,0.02c0.35,1.187,1.61,2.079,3.1,1.69c1.384-0.411,2.073-1.841,1.7-3.1 c-0.37-1.29-1.8-2.08-3.1-1.7C202.82,62.045,202.05,63.435,202.44,64.755z"/></svg>