<svg xmlns="http://www.w3.org/2000/svg"  viewBox="0 0 64 64" width="64px" height="64px" baseProfile="basic"><path fill="#37d0ee" d="M48,54H17c-2.209,0-4-1.791-4-4V10c0-2.209,1.791-4,4-4h21.311c1.06,0,2.077,0.421,2.827,1.17	l9.689,9.68C51.578,17.601,52,18.619,52,19.68V50C52,52.209,50.209,54,48,54z"/><ellipse cx="32" cy="61" opacity=".3" rx="20" ry="3"/><path fill="#fff" d="M13,10v18c2.762,0,5-2.238,5-5V11.652c0-0.42,0.264-0.795,0.66-0.934 C20.605,10.033,22,8.18,22,6h-5C14.791,6,13,7.791,13,10z" opacity=".3"/><path d="M52,50V27c-2.762,0-5,2.238-5,5v16c0,0.552-0.448,1-1,1h-9c-2.762,0-5,2.238-5,5h16 C50.209,54,52,52.209,52,50z" opacity=".15"/><path fill="#fff" d="M16.625,20c-0.829,0-1.5-0.672-1.5-1.5v-7c0-0.828,0.671-1.5,1.5-1.5s1.5,0.672,1.5,1.5v7	C18.125,19.328,17.454,20,16.625,20z"/><path fill="#008aa9" d="M50.827,16.851l-9.689-9.68C40.806,6.839,40.417,6.584,40,6.389V14c0,2.209,1.791,4,4,4h7.616	C51.42,17.579,51.162,17.185,50.827,16.851z"/><path fill="#008aa9" d="M42,31H23c-1.105,0-2-0.895-2-2v0c0-1.105,0.895-2,2-2h19c1.105,0,2,0.895,2,2v0	C44,30.105,43.105,31,42,31z"/><path fill="#008aa9" d="M42,38H23c-1.105,0-2-0.895-2-2v0c0-1.105,0.895-2,2-2h19c1.105,0,2,0.895,2,2v0	C44,37.105,43.105,38,42,38z"/><path fill="#008aa9" d="M31,45h-8c-1.105,0-2-0.895-2-2v0c0-1.105,0.895-2,2-2h8c1.105,0,2,0.895,2,2v0	C33,44.105,32.105,45,31,45z"/><path fill="#008aa9" d="M28,24L28,24c-1.105,0-2-0.895-2-2V12c0-1.105,0.895-2,2-2h0c1.105,0,2,0.895,2,2v10	C30,23.105,29.105,24,28,24z"/><path fill="#008aa9" d="M33.734,21.015L33.734,21.015c-0.634,0.905-1.881,1.125-2.785,0.491l-8.192-5.736	c-0.905-0.634-1.125-1.881-0.491-2.785l0,0c0.634-0.905,1.881-1.125,2.785-0.491l8.192,5.736	C34.148,18.863,34.368,20.11,33.734,21.015z"/><path fill="#008aa9" d="M22.266,21.015L22.266,21.015c0.634,0.905,1.881,1.125,2.785,0.491l8.192-5.736	c0.905-0.634,1.125-1.881,0.491-2.785l0,0c-0.634-0.905-1.881-1.125-2.785-0.491l-8.192,5.736	C21.852,18.863,21.632,20.11,22.266,21.015z"/></svg>