<svg xmlns="http://www.w3.org/2000/svg"  viewBox="0 0 58.996 59.003" width="47px" height="47px"><path fill="#6c4127" d="M40,29.337V6.515C40,5.678,39.322,5,38.485,5H31H9H1.515C0.678,5,0,5.678,0,6.515V53.5 C0,54.328,0.672,55,1.5,55h30.687c-2.412-2.765-2.94-6.875-1.013-10.241L40,29.337z"/><path fill="#f2ecbf" d="M31.174,44.759L36,36.326V9h-5v2H20H9V9H4v42h16h10.201C29.768,48.942,30.049,46.724,31.174,44.759z"/><circle cx="20" cy="22" r="7" fill="#dd352e"/><path fill="#afb6bb" d="M25.911,3c-1.071,0-2.072-0.514-2.707-1.376C22.479,0.64,21.317,0,20,0s-2.479,0.64-3.204,1.624 C16.161,2.486,15.16,3,14.089,3H11.53C10.133,3,9,4.133,9,5.53V11h22V5.53C31,4.133,29.867,3,28.47,3H25.911z"/><circle cx="20" cy="6" r="2" fill="#fff"/><path fill="#fff" d="M20,26c-0.552,0-1-0.447-1-1v-6c0-0.553,0.448-1,1-1s1,0.447,1,1v6C21,25.553,20.552,26,20,26z"/><path fill="#fff" d="M23,23h-6c-0.552,0-1-0.447-1-1s0.448-1,1-1h6c0.552,0,1,0.447,1,1S23.552,23,23,23z"/><path fill="#c9c191" d="M17,35H9c-0.552,0-1-0.447-1-1s0.448-1,1-1h8c0.552,0,1,0.447,1,1S17.552,35,17,35z"/><path fill="#c9c191" d="M21,40H9c-0.552,0-1-0.447-1-1s0.448-1,1-1h12c0.552,0,1,0.447,1,1S21.552,40,21,40z"/><path fill="#c9c191" d="M25,45H9c-0.552,0-1-0.447-1-1s0.448-1,1-1h16c0.552,0,1,0.447,1,1S25.552,45,25,45z"/><path fill="#1081e0" d="M38.735,59.003c-1.691,0-3.359-0.447-4.862-1.322c0,0,0,0,0,0 c-4.651-2.709-6.251-8.729-3.567-13.418l10.499-18.346c1.305-2.28,3.415-3.909,5.94-4.586c2.512-0.67,5.133-0.322,7.383,0.988 c4.651,2.709,6.251,8.729,3.567,13.418L47.195,54.083c-1.305,2.28-3.415,3.909-5.94,4.586 C40.421,58.892,39.575,59.003,38.735,59.003z"/><path fill="#4caff2" d="M38.743,55h-0.569c-0.552,0-1-0.447-1-1s0.448-1,1-1h0.569c1.35,0,2.608-0.732,3.283-1.911 l3.26-4.662c0.317-0.453,0.94-0.562,1.393-0.246c0.452,0.317,0.562,0.94,0.246,1.393l-3.211,4.586 C42.731,53.882,40.808,55,38.743,55z"/><path fill="#4caff2" d="M42.139,34c-0.186,0-0.374-0.052-0.542-0.16c-0.464-0.3-0.596-0.919-0.296-1.383l2.967-4.586 C45.3,26.063,47.064,25,49.079,25c0.552,0,1,0.447,1,1s-0.448,1-1,1c-1.296,0-2.399,0.679-3.105,1.911l-2.995,4.632 C42.788,33.839,42.467,34,42.139,34z"/><polygon fill="#4caff2" points="35.101,35.883 52.092,45.527 53.086,43.79 36.095,34.147"/></svg>