<svg xmlns="http://www.w3.org/2000/svg"  viewBox="0 0 512 512" width="512px" height="512px"><path fill="#463C4B" d="M184,480h256c17.673,0,32-14.327,32-32V96c0-17.673-14.327-32-32-32H184c-17.673,0-32,14.327-32,32v352 C152,465.673,166.327,480,184,480z"/><path fill="#555A6E" d="M184,480h240c17.673,0,32-14.327,32-32V96c0-17.673-14.327-32-32-32H184c-17.673,0-32,14.327-32,32v352 C152,465.673,166.327,480,184,480z"/><path fill="#D7E6F0" d="M192,456h224c8.837,0,16-7.163,16-16V106.667c0-8.837-7.163-16-16-16H192c-8.837,0-16,7.163-16,16V440 C176,448.837,183.163,456,192,456z"/><path fill="#23AAE6" d="M368,48h-32l0,0c0-17.673-14.327-32-32-32l0,0c-17.673,0-32,14.327-32,32l0,0h-32 c-8.836,0-16,7.164-16,16v32c0,8.836,7.164,16,16,16h128c8.836,0,16-7.164,16-16V64C384,55.164,376.836,48,368,48z M304,64 c-8.837,0-16-7.163-16-16s7.163-16,16-16s16,7.164,16,16S312.837,64,304,64z"/><path fill="#D7E6F0" d="M96,56L96,56c-8.837,0-16,7.163-16,16v16h32V72C112,63.163,104.837,56,96,56z"/><path fill="#A5C3DC" d="M104,64L104,64c-4.418,0-8,3.582-8,8v16h16V72C112,67.582,108.418,64,104,64z"/><rect width="64" height="184" x="64" y="120" fill="#D7E6F0"/><rect width="32" height="184" x="96" y="120" fill="#A5C3DC"/><rect width="64" height="128" x="64" y="304" fill="#555A6E"/><rect width="32" height="128" x="96" y="304" fill="#463C4B"/><path fill="#A5C3DC" d="M104.292,467.562L128,432H64l23.708,35.562C89.557,470.335,92.668,472,96,472h0 C99.332,472,102.443,470.335,104.292,467.562z"/><path fill="#463C4B" d="M104.292,467.562l2.375-3.562H85.333l2.375,3.563C89.557,470.335,92.668,472,96,472h0 C99.332,472,102.444,470.335,104.292,467.562z"/><path fill="#555A6E" d="M64,120v-16H48c-8.837,0-16,7.163-16,16l0,95.548c0,8.615,6.621,16.028,15.226,16.434 C56.414,232.415,64,225.093,64,216c0-8.836-7.164-16-16-16v-80H64z"/><path fill="#555A6E" d="M128,120H64v-16c0-8.837,7.163-16,16-16h32c8.837,0,16,7.163,16,16V120z"/><path fill="#463C4B" d="M128,120H96V88h16c8.837,0,16,7.163,16,16V120z"/><g><path fill="#CD3232" d="M352,128c-19.12,0-36.27,8.38-48,21.66C292.27,136.38,275.12,128,256,128c-35.35,0-64,28.65-64,64 c0,67.006,78.571,117.175,104.095,131.705c4.904,2.792,10.905,2.792,15.809,0C337.429,309.175,416,259.006,416,192 C416,156.65,387.35,128,352,128z"/><path fill="#FF4646" d="M304,176v-26.34C292.27,136.38,275.12,128,256,128c-35.35,0-64,28.65-64,64h96 C296.837,192,304,184.837,304,176z"/><path fill="#D7E6F0" d="M352,208h-32v-32c0-4.418-3.582-8-8-8h-16c-4.418,0-8,3.582-8,8v32h-32c-4.418,0-8,3.582-8,8v16 c0,4.418,3.582,8,8,8h32v32c0,4.418,3.582,8,8,8h16c4.418,0,8-3.582,8-8v-32h32c4.418,0,8-3.582,8-8v-16 C360,211.582,356.418,208,352,208z"/><path fill="#FFF" d="M296,168c-4.418,0-8,3.582-8,8v16c8.837,0,16-7.163,16-16v-8H296z"/></g><g><path fill="#A5C3DC" d="M256,424h-32c-8.837,0-16-7.163-16-16v0c0-8.837,7.163-16,16-16h32c8.837,0,16,7.163,16,16v0 C272,416.837,264.837,424,256,424z"/><path fill="#A5C3DC" d="M384,424h-80c-8.837,0-16-7.163-16-16v0c0-8.837,7.163-16,16-16h80c8.837,0,16,7.163,16,16v0 C400,416.837,392.837,424,384,424z"/></g><g><path fill="#A5C3DC" d="M256,368h-32c-8.837,0-16-7.163-16-16v0c0-8.837,7.163-16,16-16h32c8.837,0,16,7.163,16,16v0 C272,360.837,264.837,368,256,368z"/><path fill="#A5C3DC" d="M384,368h-80c-8.837,0-16-7.163-16-16v0c0-8.837,7.163-16,16-16h80c8.837,0,16,7.163,16,16v0 C400,360.837,392.837,368,384,368z"/></g></svg>