<svg xmlns="http://www.w3.org/2000/svg" xmlns:xlink="http://www.w3.org/1999/xlink" viewBox="0,0,256,256" width="240px" height="240px" fill-rule="nonzero"><defs><linearGradient x1="17.353" y1="17.548" x2="30.374" y2="30.186" gradientUnits="userSpaceOnUse" id="color-1"><stop offset="0" stop-color="#28aadc"></stop><stop offset="1" stop-color="#55e298"></stop></linearGradient></defs><g fill="none" fill-rule="nonzero" stroke="none" stroke-width="1" stroke-linecap="butt" stroke-linejoin="miter" stroke-miterlimit="10" stroke-dasharray="" stroke-dashoffset="0" font-family="none" font-weight="none" font-size="none" text-anchor="none" style="mix-blend-mode: normal"><g transform="scale(5.33333,5.33333)"><path d="M24,5c-10.493,0 -19,8.507 -19,19c0,10.493 8.507,19 19,19c10.493,0 19,-8.507 19,-19c0,-10.493 -8.507,-19 -19,-19zM24,39c-8.284,0 -15,-6.716 -15,-15c0,-8.284 6.716,-15 15,-15c8.284,0 15,6.716 15,15c0,8.284 -6.716,15 -15,15z" fill="#28aadc"></path><path d="M25,12h-2c-0.552,0 -1,-0.448 -1,-1v-8c0,-0.552 0.448,-1 1,-1h2c0.552,0 1,0.448 1,1v8c0,0.552 -0.448,1 -1,1z" fill="#28aadc"></path><path d="M25,46h-2c-0.552,0 -1,-0.448 -1,-1v-8c0,-0.552 0.448,-1 1,-1h2c0.552,0 1,0.448 1,1v8c0,0.552 -0.448,1 -1,1z" fill="#28aadc"></path><path d="M36,25v-2c0,-0.552 0.448,-1 1,-1h8c0.552,0 1,0.448 1,1v2c0,0.552 -0.448,1 -1,1h-8c-0.552,0 -1,-0.448 -1,-1z" fill="#28aadc"></path><path d="M2,25v-2c0,-0.552 0.448,-1 1,-1h8c0.552,0 1,0.448 1,1v2c0,0.552 -0.448,1 -1,1h-8c-0.552,0 -1,-0.448 -1,-1z" fill="#28aadc"></path><path d="M30,24c0,3.3 -2.7,6 -6,6c-3.3,0 -6,-2.7 -6,-6c0,-3.3 2.7,-6 6,-6c3.3,0 6,2.7 6,6z" fill="url(#color-1)"></path></g></g></svg>