<svg xmlns="http://www.w3.org/2000/svg" xmlns:xlink="http://www.w3.org/1999/xlink" viewBox="0,0,256,256" width="64px" height="64px" fill-rule="nonzero"><g fill="none" fill-rule="nonzero" stroke="none" stroke-width="1" stroke-linecap="butt" stroke-linejoin="miter" stroke-miterlimit="10" stroke-dasharray="" stroke-dashoffset="0" font-family="none" font-weight="none" font-size="none" text-anchor="none" style="mix-blend-mode: normal"><g transform="scale(0.5,0.5)"><path d="M496,104v-15.21c0,-26.322 -20.861,-48.344 -47.18,-48.783c-26.885,-0.449 -48.82,21.21 -48.82,47.993v32h80c8.837,0 16,-7.163 16,-16z" fill="#020202"></path><path d="M112,424v-200c0,-17.673 14.327,-32 32,-32v0v0c-17.673,0 -32,-14.327 -32,-32v-72c0,-26.51 21.49,-48 48,-48h288c-26.51,0 -48,21.49 -48,48v40c0,17.673 -14.327,32 -32,32v0v0c17.673,0 32,14.327 32,32v16c0,8.837 -7.163,16 -16,16v0v0c8.837,0 16,7.163 16,16v112c0,17.673 -14.327,32 -32,32v0v0c17.673,0 32,14.327 32,32v8c0,26.51 -21.49,48 -48,48h-288c26.51,0 48,-21.49 48,-48z" fill="#878787"></path><path d="M304,424v-8c0,-8.837 -7.163,-16 -16,-16h-256c-8.837,0 -16,7.163 -16,16v8c0,26.51 21.49,48 48,48h288c-26.51,0 -48,-21.49 -48,-48z" fill="#020202"></path><path d="M176,232h160c8.837,0 16,-7.163 16,-16v0c0,-8.837 -7.163,-16 -16,-16h-160c-8.837,0 -16,7.163 -16,16v0c0,8.837 7.163,16 16,16z" fill="#020202"></path><path d="M280,296h56c8.837,0 16,-7.163 16,-16v0c0,-8.837 -7.163,-16 -16,-16h-56c-8.837,0 -16,7.163 -16,16v0c0,8.837 7.163,16 16,16z" fill="#020202"></path><path d="M176,296h56c8.837,0 16,-7.163 16,-16v0c0,-8.837 -7.163,-16 -16,-16h-56c-8.837,0 -16,7.163 -16,16v0c0,8.837 7.163,16 16,16z" fill="#020202"></path><path d="M240,360h96c8.837,0 16,-7.163 16,-16v0c0,-8.837 -7.163,-16 -16,-16h-96c-8.837,0 -16,7.163 -16,16v0c0,8.837 7.163,16 16,16z" fill="#020202"></path><path d="M176,360h16c8.837,0 16,-7.163 16,-16v0c0,-8.837 -7.163,-16 -16,-16h-16c-8.837,0 -16,7.163 -16,16v0c0,8.837 7.163,16 16,16z" fill="#020202"></path><g fill="#020202"><path d="M240,168h96c8.837,0 16,-7.163 16,-16v0c0,-8.837 -7.163,-16 -16,-16h-96c-8.837,0 -16,7.163 -16,16v0c0,8.837 7.163,16 16,16z"></path></g><g fill="#020202"><path d="M176,168h16c8.837,0 16,-7.163 16,-16v0c0,-8.837 -7.163,-16 -16,-16h-16c-8.837,0 -16,7.163 -16,16v0c0,8.837 7.163,16 16,16z"></path></g><g><path d="M200,128h-32v120h-120v0c0,66.274 53.726,120 120,120h32c66.274,0 120,-53.726 120,-120v0c0,-66.274 -53.726,-120 -120,-120z" fill="#1b1b1b"></path><path d="M96,96h-32c-4.243,0 -8.313,1.686 -11.313,4.687l-32,32c-6.249,6.248 -6.249,16.379 0,22.627l32,32c3,3.001 7.07,4.687 11.313,4.687h32c8.837,0 16,-7.164 16,-16v-64c0,-8.837 -7.163,-16.001 -16,-16.001z" fill="#1b1b1b"></path><circle cx="168" cy="248" r="88" fill="#f0e1cd"></circle><path d="M168,320c-4.418,0 -8,-3.582 -8,-8v-8c0,-4.418 3.582,-8 8,-8c4.418,0 8,3.582 8,8v8c0,4.418 -3.582,8 -8,8z" fill="#b9af9b"></path><path d="M232,256h-8c-4.418,0 -8,-3.582 -8,-8c0,-4.418 3.582,-8 8,-8h8c4.418,0 8,3.582 8,8c0,4.418 -3.582,8 -8,8z" fill="#b9af9b"></path><path d="M176,225.371v-41.371c0,-4.418 -3.582,-8 -8,-8c-4.418,0 -8,3.582 -8,8v41.371c-6.818,2.41 -12.219,7.812 -14.629,14.629h-25.371c-4.418,0 -8,3.582 -8,8c0,4.418 3.582,8 8,8h25.371c3.295,9.32 12.18,16 22.629,16c13.255,0 24,-10.745 24,-24c0,-10.449 -6.68,-19.333 -16,-22.629z" fill="#353744"></path><circle cx="168" cy="248" r="8" fill="#020202"></circle><path d="M168,128h-88v-16c0,-6.471 -3.898,-12.306 -9.877,-14.782c-5.98,-2.477 -12.861,-1.107 -17.437,3.469l-32,32c-6.249,6.248 -6.249,16.379 0,22.627l32,32c3.061,3.062 7.152,4.687 11.317,4.687c2.061,0 4.14,-0.398 6.119,-1.218c5.98,-2.477 9.878,-8.312 9.878,-14.783v-16h88c48.601,0 88,39.399 88,88c0,48.601 -39.399,88 -88,88c-48.601,0 -88,-39.399 -88,-88c0,-4.418 -3.582,-8 -8,-8h-16c-4.418,0 -8,3.582 -8,8c0,66.274 53.726,120 120,120c66.274,0 120,-53.726 120,-120c0,-66.274 -53.726,-120 -120,-120z" fill="#514e4e"></path></g></g></g></svg>