<svg xmlns="http://www.w3.org/2000/svg"  viewBox="0 0 128 128" width="64px" height="64px"><path fill="#e6e7e8" d="M120.7,67.387c-2.454-2.583-6.414-2.869-9.211-0.662L93.612,80.813c-1.216-1.59-3.091-2.54-5.125-2.54H73.822 c-3.643,0-7.261-0.52-10.756-1.544l-3.425-1.003c-3.335-0.984-6.626-1.343-9.778-1.062c-8.724,0.754-12.351,5.396-14.3,7.891 c-0.432,0.553-0.84,1.075-1.099,1.269c-0.127,0.094-1.055,0.724-6.728,4.405c-0.775-0.896-1.799-1.531-2.978-1.787 c-1.441-0.316-2.915-0.046-4.152,0.751l-8.664,5.575c-2.555,1.644-3.297,5.06-1.654,7.615l13.824,21.506 c0.796,1.238,2.027,2.093,3.467,2.405c0.393,0.086,0.788,0.128,1.181,0.128c1.046,0,2.071-0.3,2.972-0.879l8.664-5.574 c0,0,0,0,0,0c2.554-1.645,3.296-5.061,1.654-7.616l-0.842-1.311c4.299-2.641,7.717-4.625,8.279-4.802 c2.314-0.655,7.326,0.438,12.633,1.595c5.15,1.122,10.475,2.283,14.899,2.283c5.763,0,10.439-2.932,13.349-5.393 c0.595-0.505,17.456-14.872,17.876-15.23l11.987-10.218c1.424-1.238,2.257-2.959,2.347-4.845 C122.667,70.548,122.001,68.755,120.7,67.387z"/><path fill="#e6e7e8" d="M44.022,57.66h-3.391c-3.026,0-5.489,2.463-5.489,5.489c0,3.026,2.462,5.488,5.489,5.488h55.735 c3.026,0,5.489-2.462,5.489-5.488c0-3.026-2.462-5.489-5.489-5.489h-3.391v-9.481c0-13.496-10.98-24.477-24.477-24.477 s-24.477,10.98-24.477,24.477V57.66z"/><path fill="#e6e7e8" d="M99.814,50.263h9.37c0.552,0,1-0.447,1-1s-0.448-1-1-1h-9.37c-0.552,0-1,0.447-1,1 S99.262,50.263,99.814,50.263z"/><path fill="#e6e7e8" d="M27.814,50.263h9.37c0.552,0,1-0.447,1-1s-0.448-1-1-1h-9.37c-0.552,0-1,0.447-1,1 S27.262,50.263,27.814,50.263z"/><path fill="#e6e7e8" d="M68.499,18.948c0.552,0,1-0.447,1-1V8.577c0-0.553-0.448-1-1-1s-1,0.447-1,1v9.371 C67.499,18.501,67.947,18.948,68.499,18.948z"/><path fill="#e6e7e8" d="M90.642,28.12c0.256,0,0.512-0.098,0.707-0.293l6.625-6.626c0.391-0.391,0.391-1.023,0-1.414 s-1.023-0.391-1.414,0l-6.625,6.626c-0.391,0.391-0.391,1.023,0,1.414C90.13,28.023,90.386,28.12,90.642,28.12z"/><path fill="#e6e7e8" d="M45.649,27.827c0.195,0.195,0.451,0.293,0.707,0.293s0.512-0.098,0.707-0.293 c0.391-0.391,0.391-1.023,0-1.414l-6.625-6.626c-0.391-0.391-1.023-0.391-1.414,0s-0.391,1.023,0,1.414L45.649,27.827z"/><g><path fill="#ffd7e5" d="M115.975,64.075c-2.083-2.192-5.492-2.437-7.867-0.566L89.361,78.283c-0.909-1.779-2.739-3.01-4.875-3.01 H69.822c-3.736,0-7.452-0.533-11.037-1.584l-3.426-1.004c-3.054-0.901-6.242-1.304-9.41-1.025 c-10.528,0.911-13.167,7.681-14.886,8.964c-0.471,0.352-6.407,4.2-7.561,4.948l12.312,19.154 c1.268-0.783,8.371-5.156,9.399-5.448c4.86-1.376,18.706,3.84,27.805,3.84c5.517,0,10.02-2.888,12.702-5.155 c2.464-2.091,29.854-25.44,29.854-25.44C118.089,70.335,118.271,66.492,115.975,64.075z"/><path fill="#6dc9f7" d="M35.855,113.128l-8.664,5.575c-2.096,1.349-4.889,0.742-6.237-1.355L7.129,95.842 c-1.347-2.095-0.741-4.886,1.354-6.234l8.664-5.575c2.096-1.349,4.889-0.742,6.237,1.355l13.824,21.506 C38.555,108.989,37.949,111.78,35.855,113.128z"/><circle cx="25.286" cy="109.752" r="2.5" fill="#fa759e"/><g><path fill="#0089ef" d="M92.367,63.638H36.631c-2.479,0-4.489-2.01-4.489-4.489v0c0-2.479,2.01-4.489,4.489-4.489h55.736 c2.479,0,4.489,2.01,4.489,4.489v0C96.855,61.628,94.846,63.638,92.367,63.638z"/><path fill="#fa759e" d="M64.499,20.702L64.499,20.702c-12.966,0-23.477,10.511-23.477,23.477v10.482h46.953V44.179 C87.976,31.213,77.465,20.702,64.499,20.702z"/><path fill="#fff" d="M64.499,20.702c-12.966,0-23.477,10.511-23.477,23.477v3c0-12.966,10.511-23.477,23.477-23.477 s23.477,10.511,23.477,23.477v-3C87.976,31.213,77.465,20.702,64.499,20.702z"/></g><g><path fill="#3a2c60" d="M116.7,63.387c-2.453-2.582-6.413-2.865-9.211-0.662L89.612,76.812c-1.216-1.59-3.092-2.54-5.125-2.54 H69.822c-3.643,0-7.261-0.52-10.756-1.544l-3.425-1.003c-3.332-0.983-6.621-1.342-9.779-1.062 c-8.723,0.755-12.351,5.397-14.299,7.891c-0.432,0.553-0.84,1.075-1.099,1.269c-0.154,0.115-1.257,0.855-6.728,4.405 c-0.775-0.896-1.799-1.531-2.978-1.787c-1.441-0.315-2.915-0.046-4.152,0.751l-8.664,5.575c-2.555,1.644-3.297,5.061-1.654,7.616 l13.824,21.506c0.796,1.238,2.027,2.093,3.467,2.405c0.393,0.086,0.788,0.128,1.181,0.128c1.046,0,2.071-0.3,2.972-0.879 l8.664-5.575c2.555-1.644,3.297-5.061,1.654-7.616l-0.842-1.311c4.299-2.641,7.717-4.625,8.279-4.802 c2.314-0.656,7.326,0.438,12.633,1.595c5.15,1.123,10.476,2.284,14.899,2.284c5.76,0,10.438-2.932,13.349-5.393 c0.538-0.456,2.262-1.925,4.629-3.942l0.781-0.664c0.42-0.358,0.471-0.99,0.113-1.41c-0.358-0.422-0.99-0.471-1.41-0.113 L89.7,93.262c-2.366,2.016-4.089,3.483-4.625,3.938c-2.654,2.244-6.901,4.919-12.056,4.919c-4.208,0-9.426-1.138-14.473-2.238 c-5.8-1.264-10.808-2.358-13.604-1.564c-0.966,0.273-5.618,3.077-8.816,5.043l-11.243-17.49c6.305-4.092,6.665-4.359,6.779-4.444 c0.473-0.353,0.916-0.92,1.478-1.639c1.885-2.412,5.041-6.45,12.898-7.13c2.905-0.254,5.947,0.076,9.041,0.988l3.426,1.004 c3.677,1.077,7.485,1.624,11.318,1.624h14.664c1.681,0,3.208,0.944,3.984,2.466c0,0,0.001,0,0.001,0.001 c0.32,0.631,0.483,1.313,0.483,2.027c0,2.479-2.016,4.494-4.494,4.494H58.305c-0.552,0-1,0.447-1,1s0.448,1,1,1H84.46 c3.581,0,6.494-2.913,6.494-6.494c0-0.751-0.128-1.477-0.375-2.17l18.148-14.302c1.98-1.56,4.786-1.358,6.522,0.469 c0.921,0.97,1.393,2.238,1.33,3.574c-0.063,1.335-0.654,2.554-1.655,3.425l-11.979,10.211c-0.42,0.357-0.471,0.989-0.113,1.409 s0.989,0.472,1.41,0.112l11.987-10.218c1.424-1.239,2.258-2.96,2.347-4.845C118.667,66.547,118,64.755,116.7,63.387z M35.313,112.287l-8.664,5.575c-0.789,0.508-1.729,0.676-2.646,0.479c-0.917-0.199-1.701-0.743-2.208-1.533L7.971,95.302 c-1.047-1.628-0.574-3.805,1.054-4.853l8.664-5.575c0.574-0.369,1.227-0.56,1.894-0.56c0.25,0,0.502,0.027,0.752,0.081 c0.917,0.199,1.701,0.743,2.208,1.533l13.824,21.506C37.414,109.062,36.941,111.239,35.313,112.287z"/><path fill="#3a2c60" d="M99.706,84.735l-5.786,4.931c-0.42,0.358-0.47,0.989-0.112,1.409c0.198,0.232,0.479,0.352,0.762,0.352 c0.229,0,0.46-0.078,0.648-0.239l5.785-4.931c0.42-0.357,0.471-0.989,0.113-1.409C100.757,84.426,100.125,84.375,99.706,84.735z"/><path fill="#3a2c60" d="M25.286,106.252c-1.93,0-3.5,1.57-3.5,3.5s1.57,3.5,3.5,3.5s3.5-1.57,3.5-3.5S27.216,106.252,25.286,106.252 z M25.286,111.252c-0.827,0-1.5-0.673-1.5-1.5s0.673-1.5,1.5-1.5s1.5,0.673,1.5,1.5S26.113,111.252,25.286,111.252z"/><path fill="#3a2c60" d="M40.022,53.661h-3.391c-3.026,0-5.489,2.462-5.489,5.488s2.462,5.488,5.489,5.488h55.735 c3.026,0,5.489-2.462,5.489-5.488s-2.462-5.488-5.489-5.488h-3.391v-9.482c0-13.496-10.98-24.477-24.477-24.477 s-24.477,10.98-24.477,24.477V53.661z M95.855,59.149c0,1.924-1.565,3.488-3.489,3.488H36.631c-1.924,0-3.489-1.564-3.489-3.488 s1.565-3.488,3.489-3.488h55.735C94.29,55.661,95.855,57.225,95.855,59.149z M42.022,44.179 c0-12.394,10.083-22.477,22.477-22.477s22.477,10.083,22.477,22.477v9.482H42.022V44.179z"/><path fill="#3a2c60" d="M95.814,46.263h9.371c0.552,0,1-0.447,1-1s-0.448-1-1-1h-9.371c-0.552,0-1,0.447-1,1 S95.262,46.263,95.814,46.263z"/><path fill="#3a2c60" d="M23.814,46.263h9.371c0.552,0,1-0.447,1-1s-0.448-1-1-1h-9.371c-0.552,0-1,0.447-1,1 S23.262,46.263,23.814,46.263z"/><path fill="#3a2c60" d="M64.499,14.948c0.552,0,1-0.447,1-1v-9.37c0-0.553-0.448-1-1-1s-1,0.447-1,1v9.37 C63.499,14.501,63.947,14.948,64.499,14.948z"/><path fill="#3a2c60" d="M86.642,24.12c0.256,0,0.512-0.098,0.707-0.293l6.626-6.626c0.391-0.391,0.391-1.023,0-1.414 s-1.023-0.391-1.414,0l-6.626,6.626c-0.391,0.391-0.391,1.023,0,1.414C86.13,24.022,86.386,24.12,86.642,24.12z"/><path fill="#3a2c60" d="M41.649,23.827c0.195,0.195,0.451,0.293,0.707,0.293s0.512-0.098,0.707-0.293 c0.391-0.391,0.391-1.023,0-1.414l-6.626-6.626c-0.391-0.391-1.023-0.391-1.414,0s-0.391,1.023,0,1.414L41.649,23.827z"/></g></g></svg>